<svg width="24" height="24" viewBox="0 0 24 24" fill="none" xmlns="http://www.w3.org/2000/svg">
<path fill-rule="evenodd" clip-rule="evenodd" d="M8.25 6C5.97183 6 4.125 7.84683 4.125 10.125C4.125 12.4032 5.97183 14.25 8.25 14.25C10.5282 14.25 12.375 12.4032 12.375 10.125C12.375 7.84683 10.5282 6 8.25 6ZM2.625 10.125C2.625 7.0184 5.1434 4.5 8.25 4.5C11.3566 4.5 13.875 7.0184 13.875 10.125C13.875 13.2316 11.3566 15.75 8.25 15.75C5.1434 15.75 2.625 13.2316 2.625 10.125Z" fill="#6B7480"/>
<path fill-rule="evenodd" clip-rule="evenodd" d="M15.8884 4.50001L15.8907 4.5C17.3825 4.5 18.8132 5.09264 19.8681 6.14753C20.923 7.20242 21.5157 8.63316 21.5157 10.125C21.5157 11.6168 20.923 13.0476 19.8681 14.1025C18.8133 15.1574 17.3825 15.75 15.8907 15.75C15.4765 15.75 15.1407 15.4142 15.1407 15C15.1407 14.5858 15.4765 14.25 15.8907 14.25C16.9847 14.25 18.0339 13.8154 18.8075 13.0418C19.5811 12.2682 20.0157 11.219 20.0157 10.125C20.0157 9.03099 19.5811 7.98178 18.8075 7.20819C18.0342 6.43487 16.9854 6.0003 15.8918 6C15.5112 6.00126 15.1324 6.05235 14.7651 6.15198C14.3653 6.2604 13.9534 6.02422 13.8449 5.62445C13.7365 5.22468 13.9727 4.8127 14.3725 4.70428C14.8667 4.57024 15.3763 4.50157 15.8884 4.50001Z" fill="#6B7480"/>
<path fill-rule="evenodd" clip-rule="evenodd" d="M8.24994 15.7498C7.04638 15.7498 5.86049 16.0394 4.79245 16.5943C3.7244 17.1491 2.80558 17.9528 2.11358 18.9376C1.87542 19.2765 1.40762 19.3581 1.06872 19.12C0.729819 18.8818 0.648149 18.414 0.886305 18.0751C1.71671 16.8934 2.8193 15.929 4.10095 15.2632C5.3826 14.5973 6.80566 14.2498 8.24994 14.2498C9.69422 14.2498 11.1173 14.5973 12.3989 15.2632C13.6806 15.929 14.7832 16.8934 15.6136 18.0751C15.8517 18.414 15.7701 18.8818 15.4312 19.12C15.0923 19.3581 14.6245 19.2765 14.3863 18.9376C13.6943 17.9528 12.7755 17.1491 11.7074 16.5943C10.6394 16.0394 9.4535 15.7498 8.24994 15.7498Z" fill="#6B7480"/>
<path fill-rule="evenodd" clip-rule="evenodd" d="M19.3486 16.5933C18.2806 16.0385 17.0946 15.7493 15.8911 15.75C15.4769 15.7503 15.1409 15.4147 15.1406 15.0005C15.1404 14.5863 15.4759 14.2503 15.8902 14.25C17.3347 14.2491 18.7582 14.5963 20.0401 15.2622C21.322 15.9281 22.4246 16.893 23.2545 18.0754C23.4925 18.4144 23.4105 18.8821 23.0715 19.1201C22.7325 19.3581 22.2647 19.2762 22.0268 18.9371C21.3353 17.9521 20.4167 17.1481 19.3486 16.5933Z" fill="#6B7480"/>
</svg>
